<svg xmlns="http://www.w3.org/2000/svg" width="100%" height="100%" preserveAspectRatio="xMidYMid slice" viewBox="0 0 1200 120">
  <!-- Background gradient -->
  <defs>
    <linearGradient id="backgroundGradient" gradientUnits="userSpaceOnUse" x1="0" y1="0" x2="1200" y2="0">
      <stop offset="0%" stop-color="#111827"/>
      <stop offset="50%" stop-color="#1e3a8a"/>
      <stop offset="100%" stop-color="#111827"/>
    </linearGradient>
    
    <linearGradient id="lineGradient" gradientUnits="userSpaceOnUse" x1="0" y1="0" x2="1200" y2="0">
      <stop offset="0%" stop-color="#60A5FA" stop-opacity="0"/>
      <stop offset="50%" stop-color="#60A5FA" stop-opacity="0.3"/>
      <stop offset="100%" stop-color="#60A5FA" stop-opacity="0"/>
    </linearGradient>
  </defs>

  <!-- Main background -->
  <rect width="100%" height="100%" fill="url(#backgroundGradient)"/>

  <!-- Logo container -->
  <g transform="translate(20, 10) scale(0.8)">
    <rect width="100" height="100" fill="#1e40af" rx="6"/>
    
    <!-- Logo content -->
    <g transform="scale(0.25)">
      <!-- Data Visualization Bars -->
      <g transform="translate(100, 100)">
        <rect x="20" y="120" width="30" height="80" fill="white"/>
        <rect x="70" y="80" width="30" height="120" fill="white"/>
        <rect x="120" y="40" width="30" height="160" fill="white"/>
        <rect x="170" y="100" width="30" height="100" fill="white"/>
      </g>
      
      <!-- Text FAS1001 -->
      <g transform="translate(85, 300)">
        <!-- F -->
        <rect x="0" y="0" width="20" height="10" fill="white"/>
        <rect x="0" y="10" width="10" height="40" fill="white"/>
        <rect x="10" y="20" width="15" height="10" fill="white"/>
        
        <!-- A -->
        <rect x="35" y="0" width="10" height="50" fill="white"/>
        <rect x="55" y="0" width="10" height="50" fill="white"/>
        <rect x="35" y="0" width="30" height="10" fill="white"/>
        <rect x="35" y="20" width="30" height="10" fill="white"/>
        
        <!-- S -->
        <rect x="75" y="0" width="25" height="10" fill="white"/>
        <rect x="75" y="0" width="10" height="25" fill="white"/>
        <rect x="75" y="20" width="25" height="10" fill="white"/>
        <rect x="90" y="25" width="10" height="25" fill="white"/>
        <rect x="75" y="40" width="25" height="10" fill="white"/>
        
        <!-- Numbers -->
        <rect x="115" y="0" width="15" height="50" fill="white"/>
        <rect x="110" y="0" width="10" height="10" fill="white"/>
        <rect x="140" y="0" width="25" height="50" fill="white"/>
        <rect x="150" y="10" width="5" height="30" fill="#1E40AF"/>
        <rect x="175" y="0" width="25" height="50" fill="white"/>
        <rect x="185" y="10" width="5" height="30" fill="#1E40AF"/>
        <rect x="210" y="0" width="15" height="50" fill="white"/>
        <rect x="205" y="0" width="10" height="10" fill="white"/>
      </g>
    </g>
  </g>

  <!-- Course Text -->
  <text x="140" y="45" fill="white" style="font-size: 32px; font-family: Arial, sans-serif; font-weight: bold;">FAS1001</text>
  <text x="140" y="75" fill="#bfdbfe" style="font-size: 18px; font-family: Arial, sans-serif;">Introduction aux mégadonnées en sciences sociales</text>

  <!-- Decorative elements -->
  <g transform="translate(900, 30) scale(0.8)">
    <rect x="0" y="0" width="12" height="24" fill="#3b82f6" opacity="0.3"/>
    <rect x="20" y="0" width="12" height="36" fill="#3b82f6" opacity="0.5"/>
    <rect x="40" y="0" width="12" height="48" fill="#3b82f6" opacity="0.7"/>
    <rect x="60" y="0" width="12" height="60" fill="#3b82f6" opacity="0.9"/>
  </g>

  <!-- Bottom line -->
  <rect x="20" y="110" width="1160" height="1" fill="url(#lineGradient)"/>
</svg>
